<?xml version="1.0" encoding="UTF-8" standalone="no"?>
<!-- Created with Inkscape (http://www.inkscape.org/) -->

<svg
   xmlns:dc="http://purl.org/dc/elements/1.1/"
   xmlns:cc="http://creativecommons.org/ns#"
   xmlns:rdf="http://www.w3.org/1999/02/22-rdf-syntax-ns#"
   xmlns:svg="http://www.w3.org/2000/svg"
   xmlns="http://www.w3.org/2000/svg"
   xmlns:sodipodi="http://sodipodi.sourceforge.net/DTD/sodipodi-0.dtd"
   xmlns:inkscape="http://www.inkscape.org/namespaces/inkscape"
   width="52.916668mm"
   height="52.916668mm"
   viewBox="0 0 52.916668 52.916668"
   version="1.1"
   id="svg8"
   inkscape:version="0.92.5 (2060ec1f9f, 2020-04-08)"
   sodipodi:docname="logo_vaccino.svg">
  <defs
     id="defs2" />
  <sodipodi:namedview
     id="base"
     pagecolor="#ffffff"
     bordercolor="#666666"
     borderopacity="1.0"
     inkscape:pageopacity="0.0"
     inkscape:pageshadow="2"
     inkscape:zoom="0.98994949"
     inkscape:cx="155.38389"
     inkscape:cy="213.18826"
     inkscape:document-units="mm"
     inkscape:current-layer="g4032"
     showgrid="false"
     inkscape:window-width="2560"
     inkscape:window-height="1343"
     inkscape:window-x="0"
     inkscape:window-y="27"
     inkscape:window-maximized="1"
     fit-margin-top="0"
     fit-margin-left="0"
     fit-margin-right="0"
     fit-margin-bottom="0" />
  <metadata
     id="metadata5">
    <rdf:RDF>
      <cc:Work
         rdf:about="">
        <dc:format>image/svg+xml</dc:format>
        <dc:type
           rdf:resource="http://purl.org/dc/dcmitype/StillImage" />
        <dc:title></dc:title>
      </cc:Work>
    </rdf:RDF>
  </metadata>
  <g
     inkscape:label="Livello 1"
     inkscape:groupmode="layer"
     id="layer1"
     transform="translate(-85.424609,-107.50711)">
    <g
       id="g4032"
       transform="matrix(0.25429022,0,0,0.26458333,-106.03793,3.0253919)">
	
	<g
   id="g4030"
   transform="matrix(0.40470303,0,0,0.37877416,631.5046,290.48356)"
   inkscape:export-xdpi="96"
   inkscape:export-ydpi="96">
		<path
   id="path4026"
   d="m 784.2,539.77 c 19.22,-6.46 28.89,-28.65 29.95,-48.56 1.58,-29.82 -21.3,-55.27 -51.12,-56.86 -1.87,-0.1 -3.72,-0.1 -5.55,-0.01 v -0.03 c -11.8,0.38 -21.79,4.26 -21.91,4.31 -31.94,12.19 -68.52,33.28 -90.15,56.39 0,0 -0.63,0.57 -0.95,0.98 -0.95,0.97 -1.83,1.84 -2.77,2.57 -0.87,0.58 -1.82,1.07 -2.85,1.43 -5.36,1.87 -11.13,-0.15 -14.24,-4.57 l -0.01,0.01 c -0.55,-0.84 -0.99,-1.73 -1.31,-2.65 -0.01,-0.02 -0.02,-0.05 -0.02,-0.07 -0.07,-0.2 -0.12,-0.39 -0.18,-0.59 -1.12,-4.05 -0.17,-8.57 2.93,-11.85 0.77,-0.82 1.63,-1.5 2.54,-2.06 0.98,-0.52 2.04,-0.94 3.21,-1.38 0.57,-0.16 1.45,-0.54 1.45,-0.54 29.96,-10.27 64.22,-35.07 88.43,-59.26 0.09,-0.09 7.71,-7.62 12.89,-18.24 l -0.03,-0.01 c 0.83,-1.63 1.58,-3.32 2.26,-5.07 10.74,-27.86 -3.13,-59.15 -30.99,-69.89 -18.61,-7.17 -42.8,-7.42 -56.56,7.48 -3.55,3.84 -8.94,5.85 -14.1,3.86 L 635,335.11 c -5.16,-1.99 -7.81,-7.1 -7.86,-12.32 -0.19,-20.28 -18.29,-36.34 -36.9,-43.51 -27.86,-10.74 -59.15,3.14 -69.89,30.99 -0.67,1.75 -1.25,3.5 -1.73,5.27 l -0.03,-0.01 c -3.29,11.34 -2.7,22.04 -2.69,22.17 1.7,34.14 10.42,75.46 25.7,103.18 0,0 0.34,0.77 0.63,1.21 0.62,1.21 1.18,2.31 1.59,3.43 0.29,1 0.45,2.06 0.48,3.15 0.12,5.67 -3.59,10.54 -8.75,12.12 v 0.01 c -0.97,0.26 -1.95,0.4 -2.93,0.43 -0.02,0 -0.05,0 -0.07,0 -0.21,0 -0.41,0 -0.62,-0.01 -4.2,-0.19 -8.2,-2.5 -10.36,-6.46 -0.54,-0.99 -0.93,-2.01 -1.18,-3.05 -0.19,-1.09 -0.26,-2.23 -0.32,-3.48 0.03,-0.59 -0.06,-1.55 -0.06,-1.55 -0.49,-31.67 -13.46,-71.92 -28.96,-102.44 -0.06,-0.11 -4.86,-9.69 -13.35,-17.9 l -0.02,0.02 c -1.3,-1.29 -2.67,-2.53 -4.12,-3.72 -23.16,-18.84 -57.21,-15.34 -76.05,7.82 -12.58,15.47 -20.31,38.4 -10.4,56.09 2.55,4.56 2.79,10.31 -0.7,14.6 l -0.08,0.1 c -3.49,4.29 -9.17,5.23 -14.15,3.66 -19.34,-6.1 -40.22,6.13 -52.8,21.6 -18.84,23.16 -15.34,57.21 7.82,76.05 1.45,1.18 2.95,2.27 4.48,3.28 l -0.02,0.03 c 9.76,6.64 20.12,9.39 20.24,9.42 32.99,8.96 74.97,13.46 106.07,7.53 0,0 0.33,-0.06 0.44,-0.08 3.15,-0.5 5.56,-1.05 8.39,-0.06 1.53,0.54 2.89,1.36 4.04,2.36 2.69,2.59 4.21,6.43 4.17,10.11 0,0 0,0.46 -0.05,0.77 -0.41,2.68 -1.63,5.3 -3.45,7.34 -1.59,1.63 -3.64,2.84 -6.01,3.41 -2.91,0.69 -8.58,-1 -8.58,-1 -30.32,-9.21 -72.65,-9.14 -106.46,-3.66 -0.12,0.02 -10.71,1.67 -21.12,7.25 l 0.02,0.03 c -1.63,0.84 -3.23,1.77 -4.8,2.79 -25.01,16.32 -32.05,49.81 -15.73,74.82 10.9,16.7 30.38,31.05 50.25,27.01 5.12,-1.04 10.67,0.48 13.69,5.12 l 0.07,0.11 c 3.02,4.64 2.19,10.33 -0.83,14.59 -11.71,16.56 -6.42,40.18 4.48,56.88 16.32,25.01 49.81,32.05 74.82,15.73 1.57,-1.02 3.06,-2.11 4.49,-3.26 l 0.02,0.02 c 9.3,-7.28 15.08,-16.3 15.15,-16.41 18.58,-28.67 35.65,-67.26 39.49,-98.67 0,0 0.6,-5.29 1.65,-7.27 3.05,-6.27 9.79,-8.03 14.54,-6.46 7.5,2.48 9.55,9.7 8.05,14.92 -0.63,2.2 -3.5,6.68 -3.5,6.68 -18.15,25.95 -31.22,66.14 -36.53,99.94 -0.02,0.12 -1.74,10.7 0.33,22.33 l 0.03,-0.01 c 0.29,1.81 0.68,3.62 1.16,5.43 7.73,28.84 37.37,45.96 66.21,38.23 19.26,-5.16 38.96,-19.21 41.3,-39.36 0.6,-5.19 3.78,-9.99 9.12,-11.42 l 0.12,-0.03 c 5.35,-1.43 10.49,1.13 13.61,5.33 12.1,16.28 36.19,18.6 55.45,13.44 28.84,-7.73 45.96,-37.37 38.23,-66.21 -0.48,-1.81 -1.05,-3.57 -1.71,-5.28 l 0.03,-0.01 c -4.02,-11.1 -10.8,-19.4 -10.88,-19.5 -21.48,-26.59 -52.87,-54.84 -81.54,-68.25 0,0 -0.73,-0.42 -1.22,-0.6 -1.21,-0.61 -2.32,-1.17 -3.3,-1.84 -0.82,-0.64 -1.58,-1.4 -2.24,-2.27 -3.44,-4.51 -3.31,-10.63 -0.07,-14.95 l -0.01,-0.01 c 0.63,-0.78 1.34,-1.47 2.12,-2.07 0.02,-0.01 0.04,-0.03 0.06,-0.05 0.16,-0.12 0.34,-0.24 0.51,-0.36 3.5,-2.32 8.1,-2.81 12.17,-0.88 1.01,0.48 1.93,1.08 2.75,1.77 0.8,0.77 1.53,1.65 2.3,2.63 0.33,0.5 0.96,1.22 0.96,1.22 19.05,25.31 53.24,50.2 83.74,65.73 0.11,0.06 9.64,4.97 21.33,6.61 v -0.03 c 1.81,0.28 3.65,0.48 5.52,0.57 29.82,1.58 55.27,-21.3 56.86,-51.12 1.06,-19.91 -6.2,-42.99 -24.63,-51.46 -4.75,-2.18 -8.33,-6.69 -8.03,-12.21 l 0.01,-0.13 c 0.25,-5.54 4.29,-9.64 9.24,-11.3 z m -213.32,51.26 c -28.38,7.6 -57.54,-9.24 -65.15,-37.61 -7.6,-28.38 9.24,-57.55 37.61,-65.15 28.38,-7.6 57.55,9.24 65.15,37.61 7.61,28.38 -9.23,57.54 -37.61,65.15 z"
   class="st3"
   inkscape:connector-curvature="0"
   style="fill:#ec2880" />

		<path
   id="path4028"
   d="m 523.52,582.85 c -24.1,-18.59 -28.57,-53.21 -9.97,-77.31 18.59,-24.1 53.21,-28.57 77.31,-9.97 24.1,18.59 28.57,53.21 9.97,77.31 -18.6,24.1 -53.21,28.57 -77.31,9.97 z"
   class="st4"
   inkscape:connector-curvature="0"
   style="fill:#ffca05" />

	</g>

</g>
  </g>
  <style
     id="style3904"
     type="text/css">
	.st0{fill:#EE4023;}
	.st1{fill:#0E9063;}
	.st2{fill:#6CBF66;}
	.st3{fill:#EC2880;}
	.st4{fill:#FFCA05;}
</style>
</svg>
